   Mladost.5.Episode.02.WEB.Rip.MP4.MC.FREEPLAY.mp4
   
General Mladost.5.Episode.02.WEB.Rip.MP4.MC.FREEPLAY.mp4
      Format : MPEG-4
      Format profile : Base Media / Version 2
      Codec ID : mp42
      File size : 919 MiB
      Duration : 48mn 51s
      Overall bit rate : 2 629 Kbps
      Encoded date : UTC 2013-03-16 01:45:13
      Tagged date : UTC 2013-03-16 01:45:13
   Video #1
      ID : 1
      Format : MPEG-4 Visual
      Format profile : AdvancedSimple@L5
      Format settings, BVOP : No
      Format settings, QPel : No
      Format settings, GMC : No warppoints
      Format settings, Matrix : Default (H.263)
      Codec ID : 20
      Duration : 48mn 51s
      Bit rate mode : Variable
      Bit rate : 2 500 Kbps
      Maximum bit rate : 25.2 Mbps
      Width : 1 280 pixels
      Height : 720 pixels
      Display aspect ratio : 16:9
      Frame rate mode : Constant
      Frame rate : 30.000 fps
      Resolution : 24 bits
      Colorimetry : 4:2:0
      Scan type : Progressive
      Bits/(Pixel*Frame) : 0.090
      Stream size : 874 MiB (95%)
      Language : English
      Encoded date : UTC 2013-03-16 01:45:14
      Tagged date : UTC 2013-03-16 01:45:14
   Audio #2
      ID : 2
      Format : AAC
      Format/Info : Advanced Audio Codec
      Format version : Version 4
      Format profile : LC
      Format settings, SBR : No
      Codec ID : 40
      Duration : 48mn 51s
      Bit rate mode : Variable
      Bit rate : 126 Kbps
      Maximum bit rate : 380 Kbps
      Channel(s) : 2 channels
      Channel positions : L R
      Sampling rate : 44.1 KHz
      Resolution : 16 bits
      Stream size : 43.9 MiB (5%)
      Language : English
      Encoded date : UTC 2013-03-16 01:45:14
      Tagged date : UTC 2013-03-16 01:45:14